<svg width="27" height="30" viewBox="0 0 27 30" fill="none" xmlns="http://www.w3.org/2000/svg">
<path d="M7.93945 21.4395L10.0605 23.5605L13.5 20.121L16.9395 23.5605L19.0605 21.4395L15.621 18L19.0605 14.5605L16.9395 12.4395L13.5 15.879L10.0605 12.4395L7.93945 14.5605L11.379 18L7.93945 21.4395Z" fill="white"/>
<path d="M24 3H21V0H18V3H9V0H6V3H3C1.3455 3 0 4.3455 0 6V27C0 28.6545 1.3455 30 3 30H24C25.6545 30 27 28.6545 27 27V6C27 4.3455 25.6545 3 24 3ZM24.003 27H3V9H24L24.003 27Z" fill="white"/>
</svg>
