<svg width="42" height="28" viewBox="0 0 42 28" fill="none" xmlns="http://www.w3.org/2000/svg">
<path d="M33.8625 10.57C33.2747 7.59101 31.6708 4.9085 29.3249 2.98068C26.9789 1.05286 24.0364 -0.000686424 21 3.35539e-07C15.9425 3.35539e-07 11.55 2.87 9.3625 7.07C6.79041 7.34796 4.41176 8.56661 2.68361 10.4918C0.955449 12.417 -0.000300478 14.9129 7.08623e-08 17.5C7.08623e-08 23.2925 4.7075 28 10.5 28H33.25C38.08 28 42 24.08 42 19.25C42 14.63 38.4125 10.885 33.8625 10.57ZM33.25 24.5H10.5C6.6325 24.5 3.5 21.3675 3.5 17.5C3.5 13.9125 6.1775 10.92 9.73 10.5525L11.6025 10.36L12.4775 8.6975C13.2823 7.13086 14.5038 5.81668 16.0075 4.89964C17.5112 3.9826 19.2387 3.49828 21 3.5C25.585 3.5 29.54 6.755 30.4325 11.2525L30.9575 13.8775L33.635 14.07C34.9505 14.1585 36.1837 14.742 37.0864 15.7031C37.989 16.6642 38.4941 17.9315 38.5 19.25C38.5 22.1375 36.1375 24.5 33.25 24.5ZM17.5 17.815L13.8425 14.1575L11.375 16.625L17.5 22.75L28.0175 12.2325L25.55 9.765L17.5 17.815Z" fill="#6B6BE9"/>
</svg>
