<svg width="24" height="30" viewBox="0 0 24 30" fill="none" xmlns="http://www.w3.org/2000/svg">
<path d="M1 1H12.9191L22.3333 10.4142V29H1V1Z" stroke="#F50A0A" stroke-width="2" stroke-linecap="round" stroke-linejoin="round"/>
<mask id="path-2-inside-1_479_5" fill="white">
<path d="M12.5 0V9.16667H23.3333"/>
</mask>
<path d="M13.5 0C13.5 -0.552285 13.0523 -1 12.5 -1C11.9477 -1 11.5 -0.552285 11.5 0H13.5ZM12.5 9.16667H11.5C11.5 9.71895 11.9477 10.1667 12.5 10.1667V9.16667ZM23.3333 10.1667C23.8856 10.1667 24.3333 9.71895 24.3333 9.16667C24.3333 8.61438 23.8856 8.16667 23.3333 8.16667V10.1667ZM11.5 0V9.16667H13.5V0H11.5ZM12.5 10.1667H23.3333V8.16667H12.5V10.1667Z" fill="#F50A0A" mask="url(#path-2-inside-1_479_5)"/>
<mask id="path-4-inside-2_479_5" fill="white">
<path d="M6.66663 23.3333V18.3333V23.3333Z"/>
</mask>
<path d="M4.66663 23.3333C4.66663 24.4379 5.56206 25.3333 6.66663 25.3333C7.7712 25.3333 8.66663 24.4379 8.66663 23.3333H4.66663ZM8.66663 18.3333C8.66663 17.2287 7.7712 16.3333 6.66663 16.3333C5.56206 16.3333 4.66663 17.2287 4.66663 18.3333H8.66663ZM8.66663 23.3333V18.3333H4.66663V23.3333H8.66663Z" fill="#F50A0A" mask="url(#path-4-inside-2_479_5)"/>
<mask id="path-6-inside-3_479_5" fill="white">
<path d="M11.6666 23.3334V16.6667V23.3334Z"/>
</mask>
<path d="M9.66663 23.3334C9.66663 24.4379 10.5621 25.3334 11.6666 25.3334C12.7712 25.3334 13.6666 24.4379 13.6666 23.3334H9.66663ZM13.6666 16.6667C13.6666 15.5621 12.7712 14.6667 11.6666 14.6667C10.5621 14.6667 9.66663 15.5621 9.66663 16.6667H13.6666ZM13.6666 23.3334V16.6667H9.66663V23.3334H13.6666Z" fill="#F50A0A" mask="url(#path-6-inside-3_479_5)"/>
<mask id="path-8-inside-4_479_5" fill="white">
<path d="M16.6666 23.3333V15Z"/>
</mask>
<path d="M14.6666 23.3333C14.6666 24.4379 15.5621 25.3333 16.6666 25.3333C17.7712 25.3333 18.6666 24.4379 18.6666 23.3333H14.6666ZM18.6666 15C18.6666 13.8954 17.7712 13 16.6666 13C15.5621 13 14.6666 13.8954 14.6666 15H18.6666ZM18.6666 23.3333V15H14.6666V23.3333H18.6666Z" fill="#F50A0A" mask="url(#path-8-inside-4_479_5)"/>
</svg>
