<svg width="29" height="29" viewBox="0 0 29 29" fill="none" xmlns="http://www.w3.org/2000/svg">
<g id="Group 59">
<g id="Group">
<path id="Vector" d="M8.25 10.75C8.82453 10.75 9.39344 10.6368 9.92424 10.417C10.455 10.1971 10.9373 9.87485 11.3436 9.46859C11.7498 9.06234 12.0721 8.58004 12.292 8.04924C12.5118 7.51844 12.625 6.94953 12.625 6.375C12.625 5.80047 12.5118 5.23156 12.292 4.70076C12.0721 4.16996 11.7498 3.68766 11.3436 3.28141C10.9373 2.87515 10.455 2.55289 9.92424 2.33303C9.39344 2.11316 8.82453 2 8.25 2C7.08968 2 5.97688 2.46094 5.15641 3.28141C4.33594 4.10188 3.875 5.21468 3.875 6.375C3.875 7.53532 4.33594 8.64812 5.15641 9.46859C5.97688 10.2891 7.08968 10.75 8.25 10.75V10.75ZM20.75 10.75C21.3245 10.75 21.8934 10.6368 22.4242 10.417C22.955 10.1971 23.4373 9.87485 23.8436 9.46859C24.2498 9.06234 24.5721 8.58004 24.792 8.04924C25.0118 7.51844 25.125 6.94953 25.125 6.375C25.125 5.80047 25.0118 5.23156 24.792 4.70076C24.5721 4.16996 24.2498 3.68766 23.8436 3.28141C23.4373 2.87515 22.955 2.55289 22.4242 2.33303C21.8934 2.11316 21.3245 2 20.75 2C19.5897 2 18.4769 2.46094 17.6564 3.28141C16.8359 4.10188 16.375 5.21468 16.375 6.375C16.375 7.53532 16.8359 8.64812 17.6564 9.46859C18.4769 10.2891 19.5897 10.75 20.75 10.75V10.75Z" stroke="white" stroke-width="3" stroke-linejoin="round"/>
<path id="Vector_2" d="M2 27V21.375C2 17.9231 4.35625 15.125 7.26312 15.125H10.4213C12.9744 15.125 14.5 17.6419 14.5 17.6419" stroke="white" stroke-width="3" stroke-linecap="round" stroke-linejoin="round"/>
<path id="Vector_3" d="M27 27V21.375C27 17.9231 24.6156 15.125 21.6744 15.125H18.4787C16.0031 15.125 14.495 17.6419 14.5 17.6419M6.375 24.5H23.25" stroke="white" stroke-width="3" stroke-linecap="round" stroke-linejoin="round"/>
<path id="Vector_4" d="M20.9344 22.1611L21.7094 22.9405L23.2594 24.4998L21.7094 26.1005L20.9344 26.9011M8.4563 22.1448L7.6688 22.9286L6.09505 24.4955L7.6688 26.088L8.4563 26.8848" stroke="white" stroke-width="3" stroke-linecap="round" stroke-linejoin="round"/>
</g>
</g>
</svg>
