<svg width="24" height="30" viewBox="0 0 24 30" fill="none" xmlns="http://www.w3.org/2000/svg">
<path d="M1 1H12.9191L22.3333 10.4142V29H1V1Z" stroke="white" stroke-width="2" stroke-linecap="round" stroke-linejoin="round"/>
<mask id="path-2-inside-1_1_197" fill="white">
<path d="M12.5 0V9.16667H23.3333"/>
</mask>
<path d="M13.5 0C13.5 -0.552285 13.0523 -1 12.5 -1C11.9477 -1 11.5 -0.552285 11.5 0H13.5ZM12.5 9.16667H11.5C11.5 9.71895 11.9477 10.1667 12.5 10.1667V9.16667ZM23.3333 10.1667C23.8856 10.1667 24.3333 9.71895 24.3333 9.16667C24.3333 8.61438 23.8856 8.16667 23.3333 8.16667V10.1667ZM11.5 0V9.16667H13.5V0H11.5ZM12.5 10.1667H23.3333V8.16667H12.5V10.1667Z" fill="white" mask="url(#path-2-inside-1_1_197)"/>
<mask id="path-4-inside-2_1_197" fill="white">
<path d="M6.66669 23.3333V18.3333V23.3333Z"/>
</mask>
<path d="M4.66669 23.3333C4.66669 24.4379 5.56212 25.3333 6.66669 25.3333C7.77126 25.3333 8.66669 24.4379 8.66669 23.3333H4.66669ZM8.66669 18.3333C8.66669 17.2287 7.77126 16.3333 6.66669 16.3333C5.56212 16.3333 4.66669 17.2287 4.66669 18.3333H8.66669ZM8.66669 23.3333V18.3333H4.66669V23.3333H8.66669Z" fill="white" mask="url(#path-4-inside-2_1_197)"/>
<mask id="path-6-inside-3_1_197" fill="white">
<path d="M11.6667 23.3334V16.6667V23.3334Z"/>
</mask>
<path d="M9.66669 23.3334C9.66669 24.4379 10.5621 25.3334 11.6667 25.3334C12.7713 25.3334 13.6667 24.4379 13.6667 23.3334H9.66669ZM13.6667 16.6667C13.6667 15.5621 12.7713 14.6667 11.6667 14.6667C10.5621 14.6667 9.66669 15.5621 9.66669 16.6667H13.6667ZM13.6667 23.3334V16.6667H9.66669V23.3334H13.6667Z" fill="white" mask="url(#path-6-inside-3_1_197)"/>
<mask id="path-8-inside-4_1_197" fill="white">
<path d="M16.6667 23.3333V15Z"/>
</mask>
<path d="M14.6667 23.3333C14.6667 24.4379 15.5621 25.3333 16.6667 25.3333C17.7713 25.3333 18.6667 24.4379 18.6667 23.3333H14.6667ZM18.6667 15C18.6667 13.8954 17.7713 13 16.6667 13C15.5621 13 14.6667 13.8954 14.6667 15H18.6667ZM18.6667 23.3333V15H14.6667V23.3333H18.6667Z" fill="white" mask="url(#path-8-inside-4_1_197)"/>
</svg>
