<svg width="25" height="30" viewBox="0 0 25 30" fill="none" xmlns="http://www.w3.org/2000/svg">
<path d="M17.25 15.375C17.25 15.0766 17.1315 14.7905 16.9205 14.5795C16.7095 14.3685 16.4234 14.25 16.125 14.25H8.625C8.32663 14.25 8.04048 14.3685 7.82951 14.5795C7.61853 14.7905 7.5 15.0766 7.5 15.375V16.125C7.5 17.625 9.5745 18.75 12.375 18.75C15.1755 18.75 17.25 17.625 17.25 16.125V15.375ZM15 10.1175C15 8.67 13.8255 7.5 12.375 7.5C10.9245 7.5 9.75 8.6685 9.75 10.1175C9.75 10.8137 10.0266 11.4814 10.5188 11.9737C11.0111 12.4659 11.6788 12.7425 12.375 12.7425C13.0712 12.7425 13.7389 12.4659 14.2312 11.9737C14.7234 11.4814 15 10.8137 15 10.1175ZM0 3.75C0 2.75544 0.395088 1.80161 1.09835 1.09835C1.80161 0.395088 2.75544 0 3.75 0H21C21.4925 0 21.9801 0.0969966 22.4351 0.285452C22.89 0.473907 23.3034 0.75013 23.6516 1.09835C23.9999 1.44657 24.2761 1.85997 24.4645 2.31494C24.653 2.76991 24.75 3.25754 24.75 3.75V25.125C24.75 25.4234 24.6315 25.7095 24.4205 25.9205C24.2095 26.1315 23.9234 26.25 23.625 26.25H2.25C2.25 26.6478 2.40804 27.0294 2.68934 27.3107C2.97064 27.592 3.35218 27.75 3.75 27.75H23.625C23.9234 27.75 24.2095 27.8685 24.4205 28.0795C24.6315 28.2905 24.75 28.5766 24.75 28.875C24.75 29.1734 24.6315 29.4595 24.4205 29.6705C24.2095 29.8815 23.9234 30 23.625 30H3.75C2.75544 30 1.80161 29.6049 1.09835 28.9016C0.395088 28.1984 0 27.2446 0 26.25V3.75ZM2.25 3.75V24H22.5V3.75C22.5 3.35218 22.342 2.97064 22.0607 2.68934C21.7794 2.40804 21.3978 2.25 21 2.25H3.75C3.35218 2.25 2.97064 2.40804 2.68934 2.68934C2.40804 2.97064 2.25 3.35218 2.25 3.75Z" fill="white"/>
</svg>
